Coordinates
version=1
nRows=19
nColumns=18
inDegrees=yes

Units are S.I. units (second, meters, Newtons, ...)
Angles are in degrees.

endheader
time	ground_thorax_rot_x	ground_thorax_rot_y	ground_thorax_rot_z	ground_thorax_tx	ground_thorax_ty	ground_thorax_tz	clav_prot	clav_elev	scapula_abduction	scapula_elevation	scapula_upward_rot	scapula_winging	plane_elv	shoulder_elv	axial_rot	elbow_flexion	pro_sup
      0.00000000	      1.80304932	     -3.31752926	     -8.92800257	     -0.00423131	      0.00403036	     -0.00078352	    -22.11074070	     -5.90818656	    -12.65596658	     -4.60420424	     10.61133749	      6.50399702	    -34.97214194	     18.41967813	     48.86363867	      0.00000000	     34.32000000
      0.01000000	      1.83714380	     -3.22506280	     -9.07076892	     -0.00423131	      0.00403036	     -0.00078352	    -22.23947930	     -5.91237289	    -12.51576895	     -4.79012172	     11.26139002	      6.35524070	    -37.81106931	     17.42686248	     57.62447335	      0.00000000	     34.32000000
      0.02000000	      1.73965213	     -3.26286240	     -9.13712954	     -0.00423131	      0.00403036	     -0.00078352	    -22.08918472	     -6.22672621	    -12.41546397	     -4.91338392	     10.84755712	      6.55998482	    -36.46684158	     18.15750069	     52.53423365	      0.00000000	     34.32000000
      0.03000000	      1.73516547	     -3.23716849	     -9.10870505	     -0.00423131	      0.00403036	     -0.00078352	    -22.08683047	     -6.23388618	    -12.40093842	     -4.92285309	     10.86298433	      6.55870793	    -36.47502572	     18.18512150	     52.54684042	      0.00000000	     34.32000000
      0.04000000	      1.66308534	     -3.29834791	     -8.96384530	     -0.00423131	      0.00403036	     -0.00078352	    -21.99136849	     -6.28606007	    -12.25415269	     -4.94305331	     10.80895507	      6.58424408	    -36.92414039	     18.41702868	     51.34681805	      0.00000000	     34.32000000
      0.05000000	      1.60626802	     -3.35657903	     -9.01909272	     -0.00423131	      0.00403036	     -0.00078352	    -22.00258321	     -6.27045833	    -12.25506848	     -4.94226826	     10.84860146	      6.57012147	    -36.84487971	     18.17426733	     51.42724515	      0.00000000	     34.32000000
      0.06000000	      1.73570214	     -3.28425362	     -9.09863811	     -0.00423131	      0.00403036	     -0.00078352	    -22.15665809	     -6.17915420	    -12.46404048	     -4.91819159	     10.98816138	      6.51302041	    -36.42155607	     18.09870588	     50.80453226	      0.00000000	     34.32000000
      0.07000000	      1.68585447	     -3.27342593	     -9.10058265	     -0.00423131	      0.00403036	     -0.00078352	    -22.10980794	     -6.14492528	    -12.42558357	     -4.87239400	     10.92629746	      6.51239919	    -36.27868254	     18.05600524	     50.75922433	      0.00000000	     34.32000000
      0.08000000	      1.62053144	     -3.18903736	     -9.08223620	     -0.00423131	      0.00403036	     -0.00078352	    -22.13020532	     -6.19345880	    -12.35334233	     -4.95760912	     11.09945627	      6.48982533	    -37.39974595	     17.98304388	     51.54034795	      0.00000000	     34.32000000
      0.09000000	      1.69023471	     -3.28635319	     -9.09736547	     -0.00423131	      0.00403036	     -0.00078352	    -22.03246196	     -6.08099895	    -12.14888126	     -4.89406650	     11.20878886	      6.41635513	    -37.58164726	     17.72915129	     54.46778571	      0.00000000	     34.32000000
      0.10000000	      1.66450688	     -3.32925121	     -9.05541607	     -0.00423131	      0.00403036	     -0.00078352	    -21.95694199	     -6.10535435	    -12.18537413	     -4.82527185	     10.89901514	      6.49488098	    -36.15351783	     18.26208102	     49.14983664	      0.00000000	     34.32000000
      0.11000000	      1.58370021	     -3.29414744	     -8.99633801	     -0.00423131	      0.00403036	     -0.00078352	    -21.97191763	     -6.14610052	    -12.29557695	     -4.81232903	     10.73034837	      6.55088956	    -36.03340866	     18.28711334	     48.97707114	      0.00000000	     34.32000000
      0.12000000	      1.60876099	     -3.33930313	     -9.10115785	     -0.00423131	      0.00403036	     -0.00078352	    -21.99084782	     -6.16141186	    -12.26205789	     -4.85580898	     10.84369761	      6.53076329	    -35.91355333	     18.06096650	     49.19956720	      0.00000000	     34.32000000
      0.13000000	      1.78693901	     -3.27561000	     -9.08504829	     -0.00423131	      0.00403036	     -0.00078352	    -22.12907876	     -5.90076912	    -12.30908459	     -4.78340400	     11.29454854	      6.33689787	    -37.53059227	     17.16567538	     59.28563279	      0.00000000	     34.32000000
      0.14000000	      1.77233945	     -3.22594080	     -9.06191340	     -0.00423131	      0.00403036	     -0.00078352	    -22.12354833	     -5.89469676	    -12.30398477	     -4.77687266	     11.28889422	      6.33537099	    -37.53343812	     17.15945124	     59.28372062	      0.00000000	     34.32000000
      0.15000000	      1.67975357	     -3.13663126	     -9.01947282	     -0.00423131	      0.00403036	     -0.00078352	    -22.14129409	     -5.95654979	    -12.53840608	     -4.72094804	     10.89843711	      6.45314516	    -35.85399417	     17.78709730	     52.57802641	      0.00000000	     34.32000000
      0.16000000	      1.81683544	     -3.25061970	     -8.92630799	     -0.00423131	      0.00403036	     -0.00078352	    -22.02926479	     -5.74465916	    -12.49356340	     -4.50168442	     10.71828460	      6.41541829	    -34.56369940	     18.15847188	     49.84940172	      0.00000000	     34.32000000
      0.17000000	      1.55896887	     -3.24813316	     -9.05029673	     -0.00423131	      0.00403036	     -0.00078352	    -22.05868523	     -6.08349694	    -12.35325243	     -4.82087730	     10.92280023	      6.48793175	    -36.23108420	     17.99209521	     49.94202368	      0.00000000	     34.32000000
      0.18000000	      1.63627448	     -3.28771301	     -9.08871085	     -0.00423131	      0.00403036	     -0.00078352	    -22.05808439	     -6.09462272	    -12.34565135	     -4.83124533	     10.92968102	      6.49016631	    -36.21199446	     18.07503559	     49.97820823	      0.00000000	     34.32000000
